<svg width="24" height="24" viewBox="0 0 24 24" fill="none" xmlns="http://www.w3.org/2000/svg">
<g clip-path="url(#clip0_1_220)">
<path d="M12.0054 4.90033e-07C18.6262 4.90033e-07 24.0097 5.39842 24.004 12.0276C23.9956 18.6241 18.6037 24.0009 11.9998 23.9991C5.37996 23.9991 0.0012207 18.5997 0.0012207 11.9714C0.00871982 5.37593 5.40153 -0.00187429 12.0054 4.90033e-07ZM11.3493 11.2487C11.2227 11.6058 11.1215 11.8983 11.0156 12.1861C10.3809 13.9287 9.73508 15.6675 9.11453 17.4158C8.73207 18.4919 9.47355 19.5877 10.5375 19.478C11.4233 19.3907 12.3009 19.234 13.1622 19.0093C14.2824 18.7112 15.0829 17.5245 14.931 16.5018H12.656C12.7179 16.3143 12.7629 16.1719 12.8153 16.0331C13.5015 14.1424 14.1961 12.2564 14.872 10.3619C15.2676 9.25392 14.5908 8.28559 13.4134 8.26404C13.0855 8.26297 12.7583 8.29437 12.4366 8.35777C11.5142 8.52838 10.5919 8.7093 9.86538 9.37859C9.32826 9.87354 9.0161 10.4688 9.00861 11.2534H11.3521L11.3493 11.2487ZM14.992 5.9993C14.992 5.60378 14.8358 5.22427 14.5573 4.94337C14.2789 4.66247 13.9008 4.50293 13.5053 4.49947C13.1105 4.49769 12.731 4.65159 12.449 4.9278C12.167 5.204 12.0053 5.58025 11.9989 5.97492C11.9964 6.17433 12.0337 6.37222 12.1086 6.55704C12.1835 6.74186 12.2945 6.90988 12.4351 7.05129C12.5757 7.19269 12.7431 7.30463 12.9275 7.38056C13.1119 7.45649 13.3096 7.49488 13.509 7.49349C13.9037 7.49004 14.2811 7.33115 14.5594 7.05126C14.8377 6.77138 14.9945 6.39306 14.9957 5.99836L14.992 5.9993Z" fill="black"/>
</g>
<defs>
<clipPath id="clip0_1_220">
<rect width="24" height="24" fill="white"/>
</clipPath>
</defs>
</svg>
