<svg width="17" height="21" viewBox="0 0 17 21" fill="none" xmlns="http://www.w3.org/2000/svg">
<path d="M4.39459 21C4.2179 20.8904 4.15723 20.7343 4.15723 20.5217C4.16148 16.2505 4.16273 11.9795 4.16095 7.70863C4.16095 6.80676 4.72776 6.21282 5.60166 6.21117C7.53324 6.20642 9.465 6.20642 11.3969 6.21117C12.2719 6.21117 12.8376 6.80566 12.8376 7.70863C12.8376 11.9798 12.8389 16.2508 12.8414 20.5217C12.8414 20.7337 12.7807 20.8915 12.604 21H10.6114C10.4262 20.8997 10.366 20.7436 10.3676 20.5293C10.3746 19.2795 10.3714 18.0297 10.3708 16.7799C10.3708 16.438 10.2585 16.3213 9.93229 16.3208H7.086C6.73261 16.3208 6.62777 16.4304 6.62777 16.8002C6.62777 18.0429 6.62404 19.2861 6.63096 20.5288C6.63096 20.7436 6.57135 20.8992 6.38721 21H4.39459ZM8.49797 9.75729H6.60861C6.35847 9.76112 6.20412 9.89482 6.20519 10.1063C6.20625 10.3178 6.36113 10.4553 6.61127 10.4553C7.8641 10.4553 9.11693 10.4553 10.3698 10.4553C10.6359 10.4553 10.7955 10.3205 10.7929 10.103C10.7902 9.8855 10.6359 9.75729 10.3671 9.75674L8.49797 9.75729ZM8.48945 13.8228C8.92055 13.8228 9.35164 13.8228 9.78327 13.8228C10.0377 13.8228 10.192 13.6941 10.1989 13.4842C10.2058 13.2744 10.0441 13.1253 9.78327 13.1248C8.92711 13.1248 8.07113 13.1248 7.21533 13.1248C6.96093 13.1248 6.80606 13.2541 6.79967 13.4639C6.79329 13.6738 6.95348 13.8217 7.21533 13.8228C7.64004 13.8239 8.06315 13.8228 8.48892 13.8228H8.48945Z" fill="black"/>
<path d="M13.72 21C13.6502 20.9498 13.5941 20.882 13.5568 20.8032C13.5196 20.7244 13.5025 20.6371 13.5071 20.5496C13.5142 17.6033 13.517 14.6573 13.5156 11.7117C13.5156 11.2915 13.6077 11.1978 14.0207 11.1978C14.5449 11.1978 15.0697 11.195 15.5944 11.1978C16.4087 11.2022 16.991 11.789 16.9931 12.6289C16.9991 14.9397 16.9991 17.2501 16.9931 19.5601C16.9931 20.2757 16.6088 20.7715 15.9366 20.9633C15.9127 20.9727 15.8899 20.9848 15.8685 20.9995L13.72 21ZM14.6668 15.4447C14.6668 15.6765 14.6636 15.9088 14.6668 16.1405C14.671 16.3898 14.7977 16.5328 15.0042 16.5318C15.2001 16.5318 15.34 16.3876 15.3432 16.1575C15.3503 15.6797 15.3503 15.202 15.3432 14.7242C15.34 14.4957 15.1969 14.3521 15.001 14.3532C14.8052 14.3543 14.6721 14.4946 14.6673 14.728C14.6625 14.9614 14.6668 15.2058 14.6668 15.4447Z" fill="black"/>
<path d="M1.1267 21C1.10525 20.9856 1.08242 20.9735 1.05858 20.9638C0.38692 20.7737 0.00478993 20.2751 0.00212886 19.5606C-0.00266107 18.2073 0.00212886 16.8539 0.00212886 15.5005C0.00212886 14.5642 0.00212886 13.6278 0.00212886 12.6914C0.00212886 11.7747 0.56947 11.1988 1.46253 11.1978C1.98729 11.1978 2.51188 11.1978 3.03629 11.1978C3.36785 11.1978 3.48122 11.3128 3.48175 11.6498C3.48175 14.6231 3.48459 17.5965 3.49026 20.5699C3.49213 20.6541 3.47365 20.7375 3.4365 20.8126C3.39934 20.8876 3.34467 20.952 3.27738 21H1.1267ZM2.33163 15.4441C2.33163 15.2052 2.33536 14.9663 2.33163 14.7274C2.32791 14.4885 2.19592 14.3538 1.9974 14.3532C1.79889 14.3527 1.65891 14.4962 1.65572 14.7247C1.64898 15.2025 1.64898 15.6801 1.65572 16.1575C1.65891 16.3876 1.79889 16.5312 1.99474 16.5317C2.20177 16.5317 2.32844 16.3898 2.3327 16.14C2.33483 15.9082 2.33163 15.6764 2.33163 15.4441Z" fill="black"/>
<path d="M10.9275 1.98346C10.8844 2.0661 10.8326 2.14364 10.7731 2.21468C10.532 2.46891 10.2856 2.71876 10.0312 2.9593C9.98804 2.99511 9.95593 3.0431 9.93882 3.0974C9.92171 3.15169 9.92035 3.20995 9.93489 3.26503C9.99875 3.61406 10.0493 3.96527 10.1142 4.3143C10.1462 4.48415 10.1233 4.62825 9.98279 4.734C9.84228 4.83975 9.71029 4.80523 9.57192 4.72907C9.27973 4.56743 8.97903 4.42114 8.69376 4.24745C8.54741 4.15814 8.43724 4.16855 8.29567 4.25293C8.0088 4.42333 7.71023 4.57291 7.41805 4.734C7.27807 4.81126 7.14183 4.83372 7.00771 4.72852C6.87359 4.62332 6.85177 4.48799 6.88157 4.3258C6.94597 3.97678 6.99813 3.62556 7.06199 3.27654C7.07734 3.21828 7.07596 3.15669 7.05801 3.09922C7.04006 3.04175 7.00632 2.99086 6.96087 2.95272C6.70648 2.71328 6.46538 2.4596 6.21577 2.21084C6.10348 2.10126 6.03216 1.97469 6.08751 1.80922C6.14286 1.64375 6.27485 1.57745 6.43877 1.55499C6.7746 1.51006 7.10777 1.44924 7.44412 1.40924C7.50266 1.40765 7.55936 1.38792 7.60684 1.35263C7.65431 1.31734 7.69034 1.26814 7.71023 1.21144C7.8534 0.888721 8.01519 0.574764 8.16421 0.254233C8.23233 0.10794 8.32388 0.00273958 8.49312 0C8.67035 0 8.76668 0.109583 8.83799 0.261356C8.99287 0.593394 9.14828 0.925979 9.31699 1.25144C9.3376 1.28635 9.3648 1.31665 9.39697 1.34055C9.42915 1.36445 9.46565 1.38148 9.50433 1.39061C9.86357 1.45581 10.226 1.50348 10.5863 1.55937C10.7992 1.59279 10.9285 1.73032 10.9275 1.98346Z" fill="black"/>
<path d="M15.0272 5.70656C15.0894 5.54602 15.0219 5.41288 14.8845 5.27152C14.6919 5.07372 14.7967 4.76469 15.0692 4.70881C15.2347 4.67484 15.3454 4.62004 15.429 4.45129C15.5663 4.1713 15.8819 4.17294 16.0261 4.45129C16.0568 4.52014 16.1041 4.57973 16.1636 4.62434C16.223 4.66895 16.2926 4.6971 16.3657 4.70607C16.6802 4.76743 16.7702 5.06714 16.5461 5.3022C16.4936 5.35039 16.4545 5.4122 16.4331 5.48121C16.4117 5.55021 16.4086 5.62387 16.4242 5.69451C16.4716 6.02326 16.1996 6.21119 15.9128 6.05559C15.8578 6.02067 15.7945 6.00218 15.73 6.00218C15.6654 6.00218 15.6021 6.02067 15.5471 6.05559C15.2635 6.20298 15.0224 6.04682 15.0272 5.70656Z" fill="black"/>
<path d="M0.566845 5.71641C0.65466 5.54491 0.554604 5.41396 0.424744 5.26657C0.24113 5.05782 0.332139 4.77345 0.601971 4.71482C0.785053 4.67592 0.89735 4.60524 0.985166 4.42607C1.1097 4.17129 1.44713 4.18937 1.5738 4.45401C1.60073 4.52081 1.64456 4.57896 1.70072 4.62241C1.75687 4.66587 1.82331 4.69305 1.89312 4.70112C2.22682 4.76578 2.31198 5.07206 2.06875 5.32246C1.96817 5.42656 1.93144 5.52245 1.96231 5.66326C1.99318 5.80408 1.96604 5.95147 1.83618 6.04681C1.77706 6.0927 1.70485 6.11716 1.63082 6.11636C1.55678 6.11557 1.48508 6.08957 1.4269 6.04242C1.29917 5.95202 1.19858 6.00023 1.07937 6.06105C0.818583 6.19693 0.564184 6.03694 0.566845 5.71641Z" fill="black"/>
<path d="M12.0472 3.95924C12.1281 3.78938 12.035 3.65843 11.9003 3.51269C11.7141 3.31051 11.8306 2.99929 12.1031 2.95491C12.2665 2.92806 12.3692 2.87053 12.448 2.70834C12.5917 2.4174 12.9073 2.41905 13.0558 2.70834C13.0838 2.77514 13.1285 2.83313 13.1854 2.87642C13.2422 2.91972 13.3091 2.94679 13.3794 2.95491C13.6891 3.00696 13.7892 3.3116 13.5742 3.54775C13.522 3.59685 13.4827 3.65867 13.4598 3.72751C13.4369 3.79635 13.4312 3.87001 13.4432 3.94171C13.4863 4.27429 13.2256 4.46332 12.9382 4.30552C12.7955 4.22772 12.6902 4.24744 12.556 4.31265C12.2835 4.44415 12.0435 4.28689 12.0472 3.95924Z" fill="black"/>
<path d="M3.54509 3.95706C3.62173 3.7872 3.52487 3.65899 3.40193 3.51872C3.21672 3.30503 3.31997 3.00752 3.59565 2.95875C3.76862 2.92807 3.87081 2.86067 3.95117 2.69465C3.97584 2.63584 4.01651 2.58563 4.06827 2.55007C4.12003 2.51451 4.18068 2.49513 4.2429 2.49426C4.30512 2.49339 4.36626 2.51108 4.41894 2.54517C4.47162 2.57927 4.5136 2.62833 4.5398 2.68644C4.6207 2.84643 4.71384 2.92642 4.88947 2.95711C5.18964 3.0119 5.2849 3.3149 5.07308 3.54228C4.95759 3.66666 4.91342 3.77296 4.94269 3.95103C4.99591 4.26279 4.72022 4.45949 4.44507 4.31156C4.38441 4.27411 4.31489 4.25466 4.24416 4.25533C4.17344 4.25601 4.10428 4.27679 4.04431 4.31539C3.78299 4.45073 3.53338 4.27704 3.54509 3.95706Z" fill="black"/>
</svg>
