<svg width="27" height="27" viewBox="0 0 27 27" fill="none" xmlns="http://www.w3.org/2000/svg">
<path opacity="0.4" d="M23.7262 24.1875C23.7262 24.5025 23.4787 24.75 23.1637 24.75H3.83624C3.52124 24.75 3.27374 24.5025 3.27374 24.1875C3.27374 19.53 7.86374 15.75 13.5 15.75C14.6587 15.75 15.7838 15.9075 16.8188 16.2112C16.155 16.9987 15.75 18.0225 15.75 19.125C15.75 19.9688 15.9862 20.7675 16.4025 21.4425C16.6275 21.825 16.92 22.1737 17.2575 22.4662C18.045 23.1862 19.0912 23.625 20.25 23.625C21.51 23.625 22.6462 23.1075 23.4562 22.275C23.6362 22.8825 23.7262 23.5237 23.7262 24.1875Z" fill="#292D32"/>
<path d="M24.615 18.045C24.5025 17.6062 24.3225 17.1675 24.075 16.7737C23.9063 16.4812 23.6812 16.2 23.4337 15.9412C22.6237 15.1312 21.5663 14.6925 20.4863 14.6363C19.26 14.5575 18.0113 15.0075 17.0663 15.9412C16.1775 16.83 15.7275 18.0112 15.75 19.1925C15.7613 20.3175 16.2113 21.4425 17.0663 22.3088C17.6625 22.905 18.3938 23.2987 19.17 23.4787C19.5975 23.5912 20.0475 23.6362 20.4975 23.6025C21.5663 23.5575 22.6125 23.13 23.4337 22.3088C24.5925 21.15 24.9863 19.5187 24.615 18.045ZM22.05 20.925C21.7238 21.2512 21.1838 21.2512 20.8575 20.925L20.2387 20.3062L19.6425 20.9025C19.3163 21.2288 18.7763 21.2288 18.45 20.9025C18.1238 20.565 18.1238 20.0363 18.45 19.71L19.0463 19.1137L18.4725 18.5512C18.1463 18.2137 18.1463 17.685 18.4725 17.3475C18.81 17.0212 19.3388 17.0212 19.6762 17.3475L20.2387 17.9212L20.835 17.325C21.1612 16.9988 21.69 16.9988 22.0275 17.325C22.3537 17.6513 22.3537 18.1913 22.0275 18.5175L21.4312 19.1137L22.05 19.7325C22.3763 20.0587 22.3763 20.5987 22.05 20.925Z" fill="#292D32"/>
<path d="M13.5 13.5C16.6066 13.5 19.125 10.9816 19.125 7.875C19.125 4.7684 16.6066 2.25 13.5 2.25C10.3934 2.25 7.875 4.7684 7.875 7.875C7.875 10.9816 10.3934 13.5 13.5 13.5Z" fill="#292D32"/>
</svg>
