<svg width="29" height="31" viewBox="0 0 29 31" fill="none" xmlns="http://www.w3.org/2000/svg">
<path d="M13.5 31C15.3626 31 16.8734 29.4892 16.8734 27.625H10.1266C10.1266 29.4892 11.6374 31 13.5 31ZM24.8584 23.1051C23.8396 22.0104 21.9333 20.3635 21.9333 14.9688C21.9333 10.8713 19.0603 7.59121 15.1864 6.78648V5.6875C15.1864 4.75568 14.4313 4 13.5 4C12.5687 4 11.8135 4.75568 11.8135 5.6875V6.78648C7.93966 7.59121 5.06669 10.8713 5.06669 14.9688C5.06669 20.3635 3.16035 22.0104 2.14152 23.1051C1.82511 23.4453 1.68484 23.8519 1.68748 24.25C1.69328 25.1148 2.37197 25.9375 3.38025 25.9375H23.6197C24.628 25.9375 25.3072 25.1148 25.3125 24.25C25.3151 23.8519 25.1748 23.4447 24.8584 23.1051Z" fill="#C5C7CD"/>
<circle cx="21.9375" cy="7.375" r="5.8125" fill="#790B0B" stroke="#F7F8FC" stroke-width="1.5"/>
</svg>
