<svg width="25" height="25" viewBox="0 0 25 25" fill="none" xmlns="http://www.w3.org/2000/svg">
<path d="M24.255 13.9706H13.3502L20.6126 21.233C20.8901 21.5105 21.3469 21.5331 21.6323 21.2642C23.4108 19.5887 24.6342 17.3299 24.9931 14.7909C25.0547 14.3561 24.6939 13.9706 24.255 13.9706ZM23.5276 10.9926C23.1489 5.50275 18.7619 1.11581 13.272 0.737135C12.8529 0.708183 12.5 1.06158 12.5 1.48162V11.7647H22.7835C23.2036 11.7647 23.5565 11.4117 23.5276 10.9926ZM10.2941 13.9706V3.06572C10.2941 2.62684 9.90853 2.26608 9.47424 2.32767C3.99768 3.10156 -0.188441 7.88602 0.00641219 13.6199C0.20678 19.5087 5.27709 24.3377 11.1686 24.2637C13.4848 24.2348 15.625 23.4885 17.3846 22.2403C17.7477 21.983 17.7716 21.4485 17.4568 21.1337L10.2941 13.9706Z" fill="black"/>
</svg>
