<svg width="24" height="24" viewBox="0 0 24 24" fill="none" xmlns="http://www.w3.org/2000/svg">
<path fill-rule="evenodd" clip-rule="evenodd" d="M7.63636 8.72727C7.63636 11.1372 9.59003 13.0909 12 13.0909C14.41 13.0909 16.3636 11.1372 16.3636 8.72727C16.3636 6.3173 14.41 4.36364 12 4.36364C9.59003 4.36364 7.63636 6.3173 7.63636 8.72727ZM9.81818 8.72727C9.81818 9.93226 10.795 10.9091 12 10.9091C13.205 10.9091 14.1818 9.93226 14.1818 8.72727C14.1818 7.52229 13.205 6.54545 12 6.54545C10.795 6.54545 9.81818 7.52229 9.81818 8.72727Z" fill="#818181"/>
<path fill-rule="evenodd" clip-rule="evenodd" d="M12 0C18.6274 0 24 5.37258 24 12C24 18.6274 18.6274 24 12 24C5.37258 24 0 18.6274 0 12C0 5.37258 5.37258 0 12 0ZM21.8182 12C21.8182 14.2802 21.0409 16.3789 19.7367 18.0455C17.9428 15.697 15.1132 14.1818 11.9297 14.1818C8.78745 14.1818 5.99001 15.6579 4.19291 17.9545C2.93123 16.3028 2.18182 14.2389 2.18182 12C2.18182 6.57757 6.57757 2.18182 12 2.18182C17.4224 2.18182 21.8182 6.57757 21.8182 12ZM12 21.8182C14.3457 21.8182 16.4993 20.9956 18.188 19.6231C16.8071 17.6522 14.5188 16.3636 11.9297 16.3636C9.37261 16.3636 7.1091 17.6204 5.72316 19.55C7.42487 20.9663 9.61295 21.8182 12 21.8182Z" fill="#818181"/>
</svg>
