<svg width="19" height="18" viewBox="0 0 19 18" fill="none" xmlns="http://www.w3.org/2000/svg">
<g clip-path="url(#clip0_1_215)">
<path d="M0.799988 17.9991V1.27114C0.799988 0.296319 1.08651 -3.05176e-05 2.02364 -3.05176e-05H17.6092C18.4941 -3.05176e-05 18.7991 0.311046 18.8 1.21828C18.8 5.33362 18.8 9.44839 18.8 13.5626C18.8 14.4871 18.489 14.8017 17.578 14.8017C13.4924 14.8017 9.40657 14.7997 5.32043 14.7956C4.98776 14.7832 4.66237 14.8977 4.4069 15.1171C3.33747 16.0061 2.24949 16.8726 1.16742 17.7452C1.06966 17.8223 0.964321 17.8856 0.799988 17.9991ZM8.47394 4.10203C6.73875 4.82036 5.66089 6.43294 5.76623 8.14343C5.82438 9.07839 6.1876 9.85651 7.06404 10.2577C7.68683 10.5411 8.28264 10.431 8.77817 9.9475C9.26021 9.47699 9.40601 8.88516 9.17594 8.24394C8.94587 7.60272 8.46046 7.22926 7.77363 7.17814C7.6548 7.16947 7.53513 7.15734 7.42052 7.14694C7.40114 6.12273 7.68767 5.63055 8.83632 4.68779L8.47394 4.10203ZM12.9565 4.0795C11.6553 4.71725 10.6912 5.61755 10.3532 7.06115C10.1004 8.12696 10.2302 9.14078 11.0552 9.93797C11.3111 10.1896 11.64 10.3481 11.9917 10.3892C12.3434 10.4304 12.6986 10.3519 13.0028 10.1659C13.288 9.98984 13.5115 9.72522 13.641 9.41016C13.7705 9.09511 13.7993 8.7459 13.7233 8.41291C13.5489 7.69458 12.9826 7.22666 12.2292 7.1764C12.123 7.16947 12.0185 7.15214 11.898 7.13827C11.8929 6.00661 12.4525 5.26748 13.3483 4.70598L12.9565 4.0795Z" fill="black"/>
</g>
<defs>
<clipPath id="clip0_1_215">
<rect width="18" height="18" fill="white" transform="translate(0.799988)"/>
</clipPath>
</defs>
</svg>
