<svg width="21" height="17" viewBox="0 0 21 17" fill="none" xmlns="http://www.w3.org/2000/svg">
<g clip-path="url(#clip0_1_237)">
<path d="M10.273 4.65982C12.1161 4.72072 13.7989 5.26322 15.4015 6.11583C17.1596 7.05339 18.6934 8.28823 20.0781 9.71139C20.6654 10.3148 20.7231 11.1233 20.1774 11.6907C18.2134 13.7357 15.9921 15.4112 13.2644 16.3143C10.6536 17.1798 8.13588 16.8528 5.69584 15.6733C3.69252 14.7021 1.96886 13.3438 0.430311 11.7468C-0.108982 11.1858 -0.149049 10.3845 0.385437 9.82919C2.61072 7.53579 5.11327 5.66949 8.30336 4.94589C8.94522 4.79765 9.61433 4.75197 10.273 4.65982ZM10.2858 15.3239C10.8873 15.3239 11.4829 15.2049 12.0381 14.9738C12.5934 14.7426 13.0975 14.4039 13.5213 13.9771C13.9451 13.5503 14.2803 13.0439 14.5076 12.487C14.7348 11.9301 14.8496 11.3337 14.8454 10.7323C14.8359 9.52386 14.3497 8.36804 13.4926 7.51616C12.6355 6.66428 11.4767 6.18522 10.2682 6.18314C9.66633 6.18598 9.0709 6.30739 8.51596 6.54044C7.96102 6.77349 7.45744 7.11361 7.034 7.54136C6.61056 7.96911 6.27557 8.47612 6.04816 9.03339C5.82075 9.59067 5.70539 10.1873 5.70866 10.7892C5.71607 11.9969 6.20205 13.1525 7.06005 14.0025C7.91804 14.8526 9.07807 15.3277 10.2858 15.3239Z" fill="black"/>
<path d="M3.03301 2.26865C3.13729 2.34214 3.23661 2.42245 3.3303 2.50904C3.83514 3.04113 4.33517 3.57882 4.8384 4.1117C4.98905 4.27197 5.11326 4.46589 4.89369 4.61413C4.79914 4.67744 4.53069 4.61413 4.43213 4.51958C3.90165 3.9939 3.3904 3.4466 2.89438 2.88968C2.80543 2.79111 2.78059 2.61001 2.78299 2.46818C2.78379 2.40327 2.93044 2.34477 3.03301 2.26865Z" fill="black"/>
<path d="M17.5034 2.31833C17.7758 2.32314 17.9209 2.58998 17.7502 2.7815C17.1893 3.40813 16.6107 4.01714 16.0193 4.61413C15.9552 4.67824 15.7332 4.66301 15.6427 4.60051C15.577 4.55483 15.5489 4.31764 15.6042 4.25594C16.1748 3.62049 16.7637 3.00266 17.3527 2.38404C17.3976 2.35151 17.449 2.3291 17.5034 2.31833Z" fill="black"/>
<path d="M8.6712 2.94018C8.60388 3.02031 8.52134 3.18859 8.44682 3.18538C8.31861 3.17897 8.12629 3.09323 8.08222 2.99066C7.92195 2.59801 7.81938 2.18933 7.69277 1.78066C7.60222 1.48977 7.48282 1.2037 7.43074 0.906409C7.4107 0.791819 7.51087 0.611519 7.61425 0.538598C7.66553 0.500936 7.91714 0.607512 7.9476 0.698864C8.20081 1.42086 8.42278 2.15808 8.6712 2.94018Z" fill="black"/>
<path d="M13.1618 0.806234C13.133 0.908002 13.1057 1.00977 13.0745 1.11074C12.8862 1.71814 12.7131 2.33196 12.4951 2.92895C12.4503 3.05075 12.2331 3.11005 12.0945 3.19739C12.044 3.05396 11.923 2.89049 11.955 2.76788C12.134 2.10278 12.337 1.44462 12.564 0.793412C12.6065 0.672412 12.7908 0.559424 12.9286 0.527371C13.0264 0.505735 13.157 0.626736 13.2724 0.683631L13.1618 0.806234Z" fill="black"/>
<path d="M10.2778 6.77292C11.3371 6.77462 12.3525 7.19651 13.1011 7.94602C13.8497 8.69553 14.2704 9.71142 14.2708 10.7707C14.2638 11.83 13.837 12.8432 13.0839 13.5882C12.3308 14.3332 11.313 14.749 10.2538 14.7445C9.20227 14.7359 8.19641 14.3138 7.45369 13.5694C6.71097 12.825 6.29107 11.8183 6.28479 10.7667C6.2867 9.70823 6.70797 8.69362 7.45637 7.94507C8.20477 7.19652 9.21931 6.77504 10.2778 6.77292ZM7.54768 10.7659C7.54768 11.4873 7.83374 12.1792 8.34312 12.6899C8.85251 13.2007 9.54365 13.4885 10.265 13.4904C10.6255 13.4927 10.9829 13.4233 11.3165 13.2864C11.6501 13.1495 11.9531 12.9477 12.2081 12.6928C12.4631 12.4379 12.665 12.1349 12.802 11.8014C12.939 11.4679 13.0085 11.1105 13.0063 10.7499C13.0038 10.029 12.7176 9.33809 12.2095 8.82669C11.7014 8.31528 11.0123 8.02454 10.2914 8.01738C9.93059 8.01696 9.57322 8.0878 9.23983 8.22583C8.90644 8.36387 8.60359 8.56639 8.34866 8.82176C8.09373 9.07714 7.89175 9.38034 7.7543 9.71397C7.61684 10.0476 7.54663 10.4051 7.54768 10.7659Z" fill="black"/>
<path d="M10.273 12.9039C9.70619 12.9037 9.16225 12.6801 8.75918 12.2815C8.35612 11.8829 8.12641 11.3416 8.11987 10.7747C8.11966 10.2004 8.34738 9.64949 8.75304 9.24292C9.1587 8.83636 9.70913 8.60742 10.2835 8.60635C10.5678 8.60761 10.8491 8.6649 11.1113 8.77495C11.3734 8.885 11.6113 9.04564 11.8114 9.2477C12.0114 9.44975 12.1697 9.68926 12.2771 9.95252C12.3845 10.2158 12.439 10.4976 12.4374 10.782C12.4288 11.3494 12.1966 11.8905 11.7914 12.2878C11.3861 12.6851 10.8405 12.9065 10.273 12.9039Z" fill="black"/>
</g>
<defs>
<clipPath id="clip0_1_237">
<rect width="20.55" height="16.2782" fill="white" transform="translate(0 0.524963)"/>
</clipPath>
</defs>
</svg>
