<svg width="19" height="17" viewBox="0 0 19 17" fill="none" xmlns="http://www.w3.org/2000/svg">
<path d="M10.9387 10.8203C10.9387 10.0285 10.9387 9.28163 10.9387 8.53551C10.9387 8.21894 10.9688 7.92339 11.3109 7.77924C11.6531 7.63508 11.8847 7.83284 12.1133 8.05016C13.4351 9.30337 14.7591 10.5544 16.0854 11.8033C16.5411 12.2379 16.5455 12.4951 16.0949 12.9217C14.755 14.1909 13.4139 15.459 12.0715 16.7263C11.8429 16.9436 11.6026 17.0841 11.2868 16.9436C10.9834 16.8088 10.938 16.5394 10.9394 16.2453C10.9394 15.4875 10.9394 14.7291 10.9394 13.9214H10.483C8.79769 13.9062 7.10877 13.9699 5.43157 13.8584C2.5102 13.665 0.104668 11.1006 0.00941386 8.20156C-0.0052406 7.74302 -0.000844265 7.28375 0.00941386 6.82521C0.0152756 6.43113 0.254873 6.18049 0.601451 6.18484C0.932642 6.18919 1.15832 6.42968 1.18177 6.80347C1.33344 9.24324 3.03043 10.8195 5.50484 10.8203H10.9402H10.9387Z" fill="black"/>
<path d="M7.82826 6.20439C7.82826 6.98746 7.82826 7.73577 7.82826 8.48334C7.82826 8.78831 7.79309 9.07155 7.47363 9.21498C7.13364 9.36711 6.89844 9.18456 6.66763 8.96362C5.34873 7.708 4.02494 6.45672 2.69627 5.20979C2.22147 4.76067 2.2178 4.51148 2.68675 4.06742C4.01004 2.81566 5.33359 1.56415 6.65737 0.312874C6.89038 0.0919335 7.12851 -0.09134 7.46337 0.049193C7.79822 0.189726 7.82973 0.493973 7.82973 0.80981C7.8246 1.5458 7.82973 2.28178 7.82973 3.06196C7.97627 3.06848 8.10303 3.07934 8.23126 3.08007C9.70843 3.08007 11.1856 3.0692 12.6628 3.08007C15.6501 3.10904 18.0849 5.07288 18.6411 7.95598C18.7876 8.70573 18.7422 9.49315 18.7554 10.2632C18.7551 10.3394 18.7389 10.4147 18.7079 10.4844C18.6769 10.5541 18.6317 10.6168 18.5751 10.6685C18.5186 10.7202 18.4518 10.7599 18.3791 10.785C18.3064 10.8101 18.2292 10.8201 18.1523 10.8145C17.8248 10.7992 17.6072 10.5566 17.5903 10.177C17.5222 8.63185 16.8327 7.43152 15.4559 6.69988C14.9109 6.40663 14.3067 6.23689 13.6871 6.20294C11.7967 6.13992 9.90334 6.17831 8.01071 6.17831C7.94948 6.18388 7.88858 6.19258 7.82826 6.20439Z" fill="black"/>
</svg>
